<svg xmlns="http://www.w3.org/2000/svg" version="1.1" xmlns:xlink="http://www.w3.org/1999/xlink" width="1000" height="1000"><g clip-path="url(#SvgjsClipPath1156)"><rect width="1000" height="1000" fill="#009966"></rect><g transform="matrix(1.6587677725118484,0,0,1.6587677725118484,150,150)"><svg xmlns="http://www.w3.org/2000/svg" version="1.1" xmlns:xlink="http://www.w3.org/1999/xlink" width="422" height="422"><svg xmlns="http://www.w3.org/2000/svg" xmlns:xlink="http://www.w3.org/1999/xlink" width="422" zoomAndPan="magnify" viewBox="0 0 316.5 316.499999" height="422" preserveAspectRatio="xMidYMid meet" version="1.0"><defs><clipPath id="beea195efa"><path d="M 201.351562 56.046875 L 265.066406 56.046875 L 265.066406 108.15625 L 201.351562 108.15625 Z M 201.351562 56.046875 " clip-rule="nonzero"></path></clipPath><clipPath id="cd1bccd032"><path d="M 227.410156 56.046875 L 238.953125 56.046875 C 245.867188 56.046875 252.492188 58.792969 257.378906 63.675781 C 262.265625 68.5625 265.011719 75.191406 265.011719 82.101562 C 265.011719 89.011719 262.265625 95.640625 257.378906 100.527344 C 252.492188 105.414062 245.867188 108.15625 238.953125 108.15625 L 227.410156 108.15625 C 220.5 108.15625 213.871094 105.414062 208.984375 100.527344 C 204.097656 95.640625 201.351562 89.011719 201.351562 82.101562 C 201.351562 75.191406 204.097656 68.5625 208.984375 63.675781 C 213.871094 58.792969 220.5 56.046875 227.410156 56.046875 Z M 227.410156 56.046875 " clip-rule="nonzero"></path></clipPath><clipPath id="a1e0d2968a"><path d="M 0.351562 0.046875 L 64.019531 0.046875 L 64.019531 52.15625 L 0.351562 52.15625 Z M 0.351562 0.046875 " clip-rule="nonzero"></path></clipPath><clipPath id="86000084cd"><path d="M 26.410156 0.046875 L 37.953125 0.046875 C 44.867188 0.046875 51.492188 2.792969 56.378906 7.675781 C 61.265625 12.5625 64.011719 19.191406 64.011719 26.101562 C 64.011719 33.011719 61.265625 39.640625 56.378906 44.527344 C 51.492188 49.414062 44.867188 52.15625 37.953125 52.15625 L 26.410156 52.15625 C 19.5 52.15625 12.871094 49.414062 7.984375 44.527344 C 3.097656 39.640625 0.351562 33.011719 0.351562 26.101562 C 0.351562 19.191406 3.097656 12.5625 7.984375 7.675781 C 12.871094 2.792969 19.5 0.046875 26.410156 0.046875 Z M 26.410156 0.046875 " clip-rule="nonzero"></path></clipPath><clipPath id="c07e3bae56"><rect x="0" width="65" y="0" height="53"></rect></clipPath><clipPath id="SvgjsClipPath1156"><rect width="1000" height="1000" x="0" y="0" rx="250" ry="250"></rect></clipPath></defs><path fill="#fafaf9" d="M 201.554688 9.664062 L 63.140625 9.664062 C 51.589844 9.664062 44.632812 22.476562 50.941406 32.160156 C 72.988281 66.039062 95.035156 99.917969 117.089844 133.796875 C 121.761719 140.980469 129.753906 145.304688 138.316406 145.304688 L 201.566406 145.304688 C 244.082031 145.304688 278.542969 114.941406 278.542969 77.484375 C 278.542969 40.023438 244.082031 9.664062 201.566406 9.664062 Z M 201.554688 9.664062 " fill-opacity="1" fill-rule="nonzero"></path><path fill="#fafaf9" d="M 201.554688 169.109375 L 65.460938 169.109375 C 52.90625 169.109375 45.355469 183.035156 52.203125 193.558594 C 73.828125 226.792969 95.453125 260.023438 117.078125 293.253906 C 121.75 300.4375 129.742188 304.761719 138.304688 304.761719 L 201.554688 304.761719 C 244.070312 304.761719 278.53125 274.398438 278.53125 236.941406 C 278.53125 199.480469 244.070312 169.121094 201.554688 169.121094 Z M 201.554688 169.109375 " fill-opacity="1" fill-rule="nonzero"></path><g clip-path="url(#beea195efa)"><g clip-path="url(#cd1bccd032)"><g transform="matrix(1, 0, 0, 1, 201, 56)"><g clip-path="url(#c07e3bae56)"><g clip-path="url(#a1e0d2968a)"><g clip-path="url(#86000084cd)"><path fill="#fafaf9" d="M 0.351562 0.046875 L 64.066406 0.046875 L 64.066406 52.15625 L 0.351562 52.15625 Z M 0.351562 0.046875 " fill-opacity="1" fill-rule="nonzero"></path></g></g></g></g></g></g></svg></svg></g></g></svg>